<?xml version="1.0" encoding="UTF-8" standalone="no"?>
<!-- Created with Inkscape (http://www.inkscape.org/) -->

<svg
   version="1.1"
   id="svg1"
   width="851.1134"
   height="618.17297"
   viewBox="0 0 851.1134 618.17297"
   fill="#dfd7ce"
   xmlns="http://www.w3.org/2000/svg"
   xmlns:svg="http://www.w3.org/2000/svg">
  <defs
     id="defs1" />
  <g
     id="g1"
     transform="translate(-262.38046,-138.95776)">
    <path
       d="M 54.529124,884.19579 C 54.238106,883.90477 54,879.69167 54,874.83333 V 866 H 45 36 V 460 54 h 8.962474 8.962474 L 54.212474,44.925996 54.5,35.851991 l 636,0.006 636,0.006 0.2875,9.068015 0.2876,9.068015 h 8.9624 8.9625 v 405.999999 406 h -8.9625 -8.9624 l -0.2876,8.95906 -0.2875,8.95905 -635.72088,0.4034 C 341.13264,884.5434 54.820142,884.48683 54.529124,884.19581 Z M 1324,874 v -8 H 690.5 57 v 8 8 H 690.5 1324 Z M 54,460 V 56.5 H 46.5 39 V 460 863.5 h 7.5 7.5 z m 1270,0.0434 V 56.212865 L 690.50016,56.356433 57.000321,56.5 l 2.8e-5,403.5 2.7e-5,403.5 633.499814,0.18699 L 1324,863.87398 Z M 1342.0007,460 1342,56.5 h -7.5 -7.5 V 460 863.5 h 7.4983 7.4983 z M 1324,46 V 38 H 690.5 57 v 8 8 H 690.5 1324 Z"
       id="path1"
       style="display:none" />
  </g>
  <g
     id="layer3"
     transform="translate(-262.38046,-138.95776)">
    <path
       d="m 683.00216,748.53303 -4.6487,-8.5977 2.476,-4.88598 2.4759,-4.88598 -1.9487,0.5096 c -2.4991,0.65352 -7.2238,-0.51308 -6.5425,-1.61543 0.286,-0.46284 1.7948,-1.09647 3.3528,-1.40806 5.2915,-1.05832 7.8825,-4.22572 8.1324,-9.94179 0.042,-0.9625 0.7515,-1.75 1.5765,-1.75 h 1.5 v 3.34501 3.34501 l 1.7627,1.59521 c 0.9695,0.87736 3.782,2.4699 6.25,3.53897 l 4.4873,1.94377 -2.766,0.72845 c -1.5214,0.40065 -3.6589,0.49498 -4.75,0.20963 -2.5217,-0.65944 -2.4635,-0.088 0.4792,4.70137 l 2.4008,3.90742 -3.8893,7.59258 c -2.1391,4.17592 -4.2966,8.19401 -4.7945,8.9291 l -0.9052,1.33652 z m -100.79544,-13.5302 c -8.67674,-1.59112 -16.29582,-4.20877 -24.33086,-8.35923 l -8,-4.13237 -8.60603,-8.52677 -8.60602,-8.52677 -3.613,-7.5 c -1.98715,-4.125 -3.90073,-8.7375 -4.25238,-10.25 l -0.63939,-2.74998 h 1.5 1.5 l 0.68391,2.75 c 1.29008,5.18739 6.45163,14.75282 10.7411,19.90549 9.4911,11.40108 21.8185,18.94446 37.43134,22.90498 l 9.61692,2.43953 h 9.30645 c 10.1642,0 19.828,-1.69398 29.0175,-5.08651 l 5.9196,-2.1854 4.2139,-4.34389 4.2138,-4.34389 1.3471,-4.61993 1.3472,-4.61994 4.9353,-0.38887 4.9353,-0.38888 2.5037,-1.79818 c 2.913,-2.09214 9.6435,-15.06904 10.5541,-20.34893 l 0.6251,-3.62441 -8.8378,-0.69085 c -7.7533,-0.60608 -23.0245,-2.22822 -38.8377,-4.12542 l -5,-0.59988 1.2112,0.86754 c 0.6662,0.47714 1.9429,2.61861 2.8371,4.75883 l 1.6259,3.89129 -0.6489,4.32689 -0.6488,4.32689 -3.1883,4.17156 c -1.7535,2.29436 -5.2132,5.20523 -7.6882,6.4686 l -4.5,2.29704 -5.8334,0.0282 -5.8334,0.0282 -7.49217,-3 c -4.12068,-1.65 -9.03315,-3 -10.91659,-3 h -3.42444 v -2.32856 c 0,-1.2807 -1.35455,-4.37354 -3.0101,-6.87298 -4.47087,-6.74977 -28.65792,-31.05764 -35.01755,-35.19246 -3.04021,-1.97664 -13.39021,-6.90045 -23,-10.9418 -9.60979,-4.04134 -21.09511,-9.17897 -25.52293,-11.41694 -11.64328,-5.88493 -19.44155,-8.88661 -28.08011,-10.80851 l -7.61063,-1.6932 -6.12934,0.56294 c -7.43295,0.68268 -12.03693,2.00468 -16.48789,4.73439 l -3.35855,2.05975 1.69868,1.87702 1.69869,1.87702 -0.64129,2.02051 c -1.30677,4.11727 -7.09859,3.72567 -8.17235,-0.55256 l -0.61611,-2.45478 2.69751,-2.8156 c 4.03048,-4.2069 11.26197,-7.74707 18.48416,-9.0489 l 6.43219,-1.15942 6.06781,0.69585 c 9.25841,1.06176 17.59819,3.94683 34.57994,11.96262 62.86454,29.67355 125.98197,44.96986 194.48787,47.13348 l 20,0.63166 17.5,-1.15614 c 65.2198,-4.30877 121.7436,-18.7914 179.7548,-46.05708 18.2122,-8.55986 26.4598,-11.44191 35.813,-12.51454 l 6.0678,-0.69585 6.4322,1.15942 c 7.4365,1.34045 15.0457,5.1524 18.5149,9.27534 2.9088,3.45686 2.9398,3.85251 0.5348,6.82258 l -1.8825,2.32482 -2.6175,-1.1926 c -2.955,-1.34639 -3.3627,-3.75453 -1.0654,-6.29301 l 1.552,-1.715 -3.302,-2.02529 c -1.8162,-1.1139 -5.9841,-2.79949 -9.2621,-3.74575 l -5.9601,-1.72047 -7.5399,0.59597 c -10.4079,0.82264 -16.0584,2.68489 -34.54,11.3834 -8.8,4.14179 -20.8919,9.50425 -26.8709,11.91659 -5.979,2.41233 -14.0161,6.03885 -17.8603,8.05891 l -6.9894,3.67285 -8.0568,7.56816 c -4.4313,4.16249 -12.2448,12.20118 -17.3634,17.86377 l -9.3067,10.29561 -1.0379,3.85462 -1.038,3.85463 -4.2383,0.46346 c -2.3311,0.25491 -6.9383,1.63912 -10.2383,3.07603 l -6,2.61257 -6,0.002 -6,0.002 -4,-1.85194 c -4.9016,-2.26936 -8.8875,-6.39185 -10.9469,-11.32202 -2.106,-5.04156 -1.9521,-9.07968 0.5316,-13.94821 l 2.0848,-4.08641 -4.3348,0.62806 c -8.0718,1.16953 -29.2861,3.4682 -38.4627,4.16761 l -9.128,0.69571 1.3188,4.99913 c 1.5289,5.7959 5.9081,14.81694 8.5903,17.69599 2.0477,2.19793 8.7562,4.34306 12.1011,3.86947 l 2.1433,-0.30347 0.634,3 c 1.6815,7.95769 7.4652,14.03806 16.6365,17.49006 18.1469,6.83029 39.8868,6.67671 57.3147,-0.4049 17.9426,-7.29073 31.9932,-21.22571 37.6449,-37.33516 1.013,-2.8875 2.1862,-5.25 2.6071,-5.25 1.8436,0 0.4555,5.39369 -3.3803,13.1342 l -4.1456,8.3658 -8.227,8.09228 -8.2269,8.09229 -9.3774,4.57336 c -11.4156,5.56736 -19.4024,7.67451 -31.8775,8.41025 l -9.5,0.56028 -8.5175,-1.48773 c -26.2493,-4.5854 -47.0843,-20.83298 -55.5474,-43.31757 -1.3393,-3.55813 -2.4351,-7.28617 -2.4351,-8.28454 v -1.81521 l -20.3968,0.088 -20.3968,0.088 -1.1249,5 c -0.6186,2.75 -3.0276,8.48447 -5.3532,12.74327 l -4.2283,7.74328 -6,6.12081 c -3.3,3.36645 -7.9464,7.46442 -10.3253,9.10661 -5.7722,3.98455 -17.2802,9.22446 -24.6747,11.23505 l -6,1.63143 -11.5,0.41046 c -6.325,0.22575 -13.60111,0.0252 -16.16914,-0.44577 z m 207.07654,-32.16599 c 6.4204,-2.09465 13.4465,-7.36886 22.6022,-16.96657 4.9385,-5.17692 13.493,-13.94516 19.01,-19.48498 l 10.0308,-10.0724 -7.3179,2.32387 c -9.1526,2.90648 -14.0505,5.39563 -17.1488,8.71513 l -2.4164,2.58884 -6.5836,-0.60962 -6.5837,-0.60963 -7.5,1.14866 c -4.125,0.63177 -8.3266,1.40265 -9.3369,1.71308 l -1.8369,0.56442 2.0926,1.46573 c 4.7647,3.33734 6.2993,10.08811 3.5165,15.46946 l -1.5647,3.02583 -3.0771,1.29381 c -3.9805,1.67369 -6.6633,0.92225 -7.4161,-2.07726 l -0.6007,-2.39349 1.2341,-1.48702 c 2.6324,-3.17192 8.1915,-0.69991 6.4163,2.85323 -0.3187,0.63787 0.3548,0.0974 1.4967,-1.20102 l 2.0762,-2.36077 v -3.33345 -3.33345 l -2.3088,-2.68419 -2.3089,-2.68419 -5.0255,-0.48289 -5.0256,-0.48289 -3.2098,1.65986 c -8.7296,4.51425 -9.4062,16.32816 -1.3677,23.88192 5.4328,5.10512 13.4625,6.39546 22.1537,3.56 z m -184.9934,-0.8353 c 5.0145,-2.5582 8.8373,-7.2013 9.6955,-11.77601 l 0.6891,-3.67329 -1.3993,-4.01467 -1.3993,-4.01466 -3.3979,-2.2826 -3.3979,-2.2826 h -4.929 -4.929 l -2.9231,2.92308 c -3.8575,3.85753 -4.278,9.02019 -1.0086,12.38476 l 1.7567,1.80783 -0.086,-2.30783 -0.086,-2.30784 2.305,-0.32676 c 5.0253,-0.71239 7.0179,4.58622 2.7712,7.36879 l -2.4238,1.58814 -3.0155,-1.55938 c -1.6585,-0.85765 -3.7178,-2.56207 -4.5762,-3.78758 l -1.5599,-2.22822 v -4.3775 -4.37749 l 3.3494,-3.34943 3.3495,-3.34943 -5.0995,-1.21924 c -2.80466,-0.67058 -9.89121,-1.28989 -15.74787,-1.37625 l -10.64848,-0.157 -3.2214,-2.71064 c -4.28455,-3.60521 -7.73812,-5.31899 -15.63204,-7.75718 -3.62152,-1.11857 -7.3192,-2.30146 -8.21709,-2.62865 -0.89789,-0.32718 0.63938,1.22108 3.41615,3.44058 2.77677,2.21951 9.30177,8.69289 14.5,14.38529 23.04788,25.23895 29.35287,29.69464 42.24113,29.85149 l 5.7899,0.0705 z m 81.656,9.06946 c -0.6805,-1.10115 1.8677,-3.3423 2.772,-2.43797 0.3619,0.3619 0.658,1.25799 0.658,1.99133 0,1.4897 -2.5779,1.82538 -3.43,0.44664 z m -0.5238,-7.55769 c -1.4934,-1.79939 -0.7567,-4.34573 1.5087,-5.21505 l 1.6002,-0.61406 1.6555,1.65551 1.6555,1.65551 -1.0902,1.73123 c -1.4602,2.31867 -3.7748,2.66039 -5.3297,0.78686 z m -0.2962,-9.6357 -1.75,-1.01928 v -2.97175 -2.97175 l 2.4959,-1.13722 2.496,-1.13723 2.004,1.81365 c 2.4942,2.25718 2.5566,4.69373 0.1754,6.84869 -2.0997,1.90014 -2.9848,1.99401 -5.4213,0.57489 z M 426.89401,659.98708 c -0.84251,-1.36321 1.77686,-6.03821 5.14257,-9.17837 7.17955,-6.69839 23.62631,-13.88599 31.6409,-13.82777 l 3.19838,0.0232 -7.7428,3.92038 c -8.81469,4.46311 -12.83135,7.2771 -21.0642,14.75714 l -5.807,5.27605 h -2.38398 c -1.31119,0 -2.65393,-0.43678 -2.98387,-0.97063 z m 511.68905,-3.33995 c -8.3247,-7.6233 -13.5307,-11.36783 -21.7072,-15.61338 l -8,-4.15389 5.356,0.58744 c 14.6805,1.6101 34.144,13.77187 34.144,21.3348 v 2.15561 h -2.5428 -2.5429 z m -595.03893,-18.83515 -4.33172,-2.14415 -2.62831,-3.97163 -2.6283,-3.97163 -0.36398,-6.13343 -0.36398,-6.13343 2.37328,-4.62215 2.37327,-4.62216 -6.54926,2.23611 c -3.6021,1.22985 -11.49927,4.14631 -17.54927,6.48101 l -11,4.2449 -2.5,2.90016 -2.5,2.90016 -6.75,-0.009 c -3.7125,-0.005 -6.75,-0.35471 -6.75,-0.77724 0,-0.42252 9.5625,-4.47452 21.25,-9.00445 114.85892,-44.5178 228.31548,-67.4034 352.75,-71.15406 l 29.5,-0.88917 28.9174,0.87912 c 46.7364,1.42083 80.3963,4.28639 123.0826,10.47834 74.5242,10.81026 154.2722,31.52346 222.00004,57.66076 9.9,3.82057 20.5871,7.92552 23.7491,9.12209 3.162,1.19658 5.7495,2.7381 5.75,3.4256 5e-4,0.6875 -0.407,1.25 -0.9056,1.25 -0.4986,0 -8.4861,-2.97321 -17.75,-6.60714 -9.2639,-3.63393 -20.9255,-8.08537 -25.9146,-9.89208 l -9.0712,-3.28493 1.9128,3.86616 c 1.0521,2.12639 2.1556,5.67596 2.4523,7.88795 l 0.5394,4.02179 -1.2614,4.50553 -1.2615,4.50553 -3.9219,3.54322 c -4.6114,4.16613 -7.5965,5.45454 -12.6325,5.45242 -4.9691,-0.002 -10.1616,-2.7748 -12.915,-6.89633 l -2.2699,-3.39791 v -4.44782 -4.44783 l 1.7061,-2.88813 c 3.0377,-5.1425 11.4454,-7.62612 14.7225,-4.34902 1.9136,1.91364 1.9849,3.48079 0.2654,5.83241 l -1.3061,1.7861 -2.4439,-0.34497 -2.444,-0.34497 0.039,-2.75 c 0.022,-1.5125 -0.3316,-2.75 -0.7852,-2.75 -2.1523,0 -5.7668,3.50828 -6.7812,6.58191 l -1.1281,3.41809 1.1066,3.35295 c 0.6086,1.84412 2.2547,4.43162 3.6581,5.75 l 2.5515,2.39705 h 6.1695 6.1694 l 2.7355,-2 c 3.6341,-2.65708 6.7697,-9.19821 6.7425,-14.06572 -0.03,-5.44878 -3.0863,-11.65238 -7.3372,-14.89469 l -3.5769,-2.72823 -10.5948,-3.43553 c -5.8271,-1.88955 -14.1208,-3.91006 -18.43034,-4.49004 l -7.8356,-1.0545 -8.1537,0.98575 -8.1538,0.98575 -4.4173,-4.7224 c -2.4295,-2.59732 -6.8845,-5.97073 -9.9001,-7.49647 l -5.4828,-2.77407 -21.6837,-5.38851 c -11.926,-2.96368 -23.76,-5.65497 -26.2977,-5.98064 l -4.6141,-0.59213 -11,5.17725 c -55.2338,25.99647 -112.8637,40.87639 -174.4996,45.05554 l -17.5,1.18656 -23.5,-0.58912 c -12.925,-0.32402 -30.025,-1.31363 -38,-2.19913 -53.89902,-5.98466 -107.40469,-20.90445 -153.31837,-42.75207 l -12.81838,-6.09951 -6.18162,1.25887 c -3.3999,0.69238 -14.73163,3.29999 -25.18163,5.79468 l -19,4.53581 -6.08912,2.86558 -6.08912,2.86557 -4.66641,4.98877 -4.6664,4.98877 -8.40742,-1.0284 -8.40741,-1.02839 -7.56487,1.05217 c -4.16068,0.5787 -12.5407,2.66076 -18.62227,4.6268 l -11.05741,3.57462 -3.61374,3.17291 c -4.41708,3.87824 -6.31583,8.16856 -6.31583,14.2709 0,5.75487 2.32413,10.8158 6.25105,13.61201 l 3.00447,2.13938 4.70664,0.45225 4.70663,0.45224 3.14868,-1.62824 c 3.89444,-2.01389 6.18253,-6.25358 6.18253,-11.45584 v -3.96076 l -3.07673,-2.5889 c -3.88353,-3.26778 -4.51152,-3.24511 -4.46269,0.16111 l 0.0394,2.75 -2.30504,0.32676 c -2.98283,0.42285 -5.19494,-1.45672 -5.19494,-4.41402 v -2.34237 l 1.93426,-1.03519 c 1.06384,-0.56935 3.36678,-1.03518 5.11765,-1.03518 h 3.18338 l 3.88236,3.88235 3.88235,3.88236 v 4.96976 4.96976 l -2.25,3.29628 c -2.88281,4.22334 -8.13285,6.9997 -13.2344,6.9987 l -4.0156,-7.9e-4 z m 394.05193,-31.9425 c 23.098,-23.41217 49.4206,-37.9076 80.7798,-44.48417 6.325,-1.32645 13.1875,-2.41531 15.25,-2.41967 2.0625,-0.004 3.75,-0.45793 3.75,-1.00793 v -1 l -20.25,0.0183 -20.25,0.0183 -10.2215,1.45311 c -20.2148,2.87382 -34.5062,7.65246 -50.2785,16.8118 l -8.5,4.93614 -11.2232,11.53269 -11.2233,11.53268 -0.6139,-1.59973 -0.6138,-1.59974 1.7205,-2.80177 c 2.1144,-3.44311 14.6374,-14.41073 23.6062,-20.67421 18.7762,-13.11265 42.2572,-20.42725 71.8475,-22.38133 l 11.5,-0.75944 -19.5,-1.9934 -19.5,-1.9934 -15.5,0.10389 c -23.8207,0.15966 -38.7156,2.82895 -52.5323,9.41422 l -8.0323,3.82833 -5.0871,5.37881 -5.0871,5.37881 -4.3806,-4.59101 c -7.9753,-8.35834 -22.5908,-14.55936 -41.4595,-17.59033 l -10.9211,-1.75431 -17,0.0805 -17,0.0804 -17,1.87958 -17,1.87959 11.53783,0.69805 c 28.28967,1.71157 52.47027,9.16925 71.41857,22.02664 7.9287,5.37999 23.4354,19.35519 24.8004,22.351 l 1.089,2.39009 -1.1243,1.12422 -1.1242,1.12422 -3.2811,-3.90135 c -19.9156,-23.68075 -42.9175,-35.89322 -76.9445,-40.85236 l -10.62838,-1.54899 h -19.56264 -19.56265 l -0.61803,1 -0.61803,1 3.30901,0.003 c 11.57697,0.0112 37.98842,7.55508 53.26072,15.21287 16.7471,8.39726 28.7592,17.27557 43.5079,32.15723 l 9.4596,9.54488 6.5404,0.41129 c 3.5972,0.22621 21.4895,0.31918 39.7606,0.20661 l 33.2202,-0.20468 z m -97.8482,5.50926 c -3.6807,-4.82557 -12.0346,-12.03304 -16.2847,-14.04987 l -3.4644,-1.64395 -5.9047,-0.11361 -5.9046,-0.1136 -1.3117,-3.8162 c -3.5952,-10.45962 -15.3558,-17.95087 -39.30994,-25.03966 l -5.30805,-1.57081 2.47211,2.93793 c 1.35966,1.61586 3.01299,4.57683 3.67407,6.57992 l 1.20196,3.64198 -0.46518,4.84126 -0.46518,4.84127 -2.78476,3.651 c -1.53161,2.00805 -4.50378,4.42063 -6.60481,5.36129 l -3.82005,1.71029 17.20396,4.20249 c 9.46219,2.31137 20.64927,4.89195 24.86017,5.73462 9.3487,1.87082 38.2853,6.22408 42.1447,6.34028 l 2.8009,0.0843 z m 118.628,0.41886 c 15.4097,-2.26784 36.9408,-6.68873 51.3505,-10.54356 l 9.8504,-2.63517 -2.8504,-1.45218 c -6.9805,-3.55624 -10.3505,-8.96477 -10.3505,-16.61176 0,-5.58113 1.3806,-9.31453 4.7507,-12.84722 1.4429,-1.5125 2.3921,-2.75 2.1092,-2.75 -1.2918,0 -19.9289,6.5069 -24.8181,8.66492 -3.002,1.32505 -7.8243,4.19563 -10.7163,6.37907 l -5.2581,3.96989 -2.7275,5.80556 -2.7276,5.80556 -6.0562,0.0144 -6.0561,0.0143 -3.3644,1.75797 c -4.031,2.10633 -11.0901,8.48052 -15.3545,13.86471 l -3.0941,3.90664 5.9065,-0.67817 c 3.2486,-0.373 11.9815,-1.57223 19.4065,-2.66496 z M 559.9617,593.49342 c 1.3803,-0.90441 3.38648,-3.08243 4.45816,-4.84004 l 1.94852,-3.19567 0.004,-4.79966 c 0.009,-10.97396 -6.84481,-16.67108 -22.58242,-18.7725 l -8.91384,-1.19025 -15,0.62212 -15,0.62212 -14.40379,2.80644 -14.40379,2.80643 7.24295,3.23858 c 9.74364,4.35685 17.14175,6.16672 25.20708,6.16672 h 6.72251 l 0.62596,1.97221 c 0.34427,1.08471 2.46275,3.54444 4.70773,5.46605 l 4.08177,3.49385 7.9451,3.03394 c 4.3698,1.66867 8.07519,3.03395 8.2342,3.03395 0.159,0 -0.60368,-1.80448 -1.69486,-4.00995 l -1.98397,-4.00995 0.68684,-3.66115 0.68683,-3.66116 3.02835,-2.82889 3.02834,-2.8289 h 4.2718 4.2718 l 1.19921,1.44496 c 1.59998,1.92786 0.96562,5.58754 -1.20432,6.9478 l -1.75,1.09701 -1.75,-1.1216 -1.75,-1.1216 0.0304,-2.50765 0.0304,-2.50765 -1.53044,0.53637 c -2.98448,1.04594 -4.99987,3.55247 -5.65217,7.02955 l -0.66085,3.52262 1.76333,3.2743 c 0.96982,1.80086 3.1709,3.99276 4.89128,4.87088 l 3.12797,1.59659 3.7881,-0.44074 c 2.08345,-0.24241 4.91744,-1.18072 6.29774,-2.08513 z m 270.72316,-0.003 2.6769,-1.75394 1.2011,-4.00888 1.201,-4.00889 -1.944,-3.53863 c -1.0692,-1.94625 -2.9251,-3.89149 -4.1243,-4.32274 l -2.1803,-0.78411 0.1803,2.55126 0.1803,2.55127 -1.75,1.13562 -1.75,1.13562 -1.75,-1.09701 c -2.1699,-1.36026 -2.8043,-5.01994 -1.2043,-6.9478 l 1.1992,-1.44448 h 3.9775 3.9776 l 3.4,3.4 3.4,3.4 v 4.87749 4.8775 l -1.5567,2.2225 c -0.8562,1.22238 -1.3348,2.22251 -1.0637,2.22251 0.2712,0 3.8929,-1.30916 8.0482,-2.90925 8.2096,-3.16124 14.3477,-7.43414 16.5259,-11.5043 l 1.3843,-2.58645 h 6.6209 c 8.0838,0 16.4236,-2.06231 25.0411,-6.19226 l 6.5,-3.11515 -14,-3.0149 -14,-3.01489 -21.5,-0.0814 -21.5,-0.0814 -5.1426,1.7947 c -2.8285,0.98709 -6.7025,3.30959 -8.6089,5.16111 l -3.4663,3.3664 -1.0924,4.33889 -1.0923,4.3389 0.8209,3.63913 c 1.0378,4.60028 3.7384,8.2593 7.5816,10.27227 l 3,1.57131 4.0661,-0.34779 c 2.2363,-0.19128 5.2706,-1.13706 6.7429,-2.10173 z m -127.6855,-36.31528 c 7.9224,-3.9623 14.6202,-6.06563 26.1778,-8.22065 l 9.6987,-1.80842 -7.5,-0.15604 c -27.164,-0.56515 -66.789,-0.62754 -79.5,-0.12516 l -15,0.59284 7.9541,1.26844 c 16.9645,2.70534 29.6628,7.88587 38.1132,15.54912 l 4.9327,4.47326 4.6235,-4.31716 c 2.5429,-2.37444 7.2679,-5.63974 10.5,-7.25623 z m -211.10202,57.16119 c -1.94909,-1.94909 -1.65659,-4.26429 0.72852,-5.76632 l 1.75,-1.10207 1.75,1.10207 c 0.9625,0.60614 1.91143,1.92409 2.10874,2.92879 l 0.35874,1.82672 -1.79987,1.31609 c -2.32014,1.69653 -2.9325,1.65835 -4.89613,-0.30528 z m 387.22852,0.54128 c -3.2497,-1.89279 -1.4954,-6.9199 2.4148,-6.9199 0.9707,0 2.2665,0.93743 2.8797,2.08319 l 1.1149,2.08318 -1.7347,1.91682 c -1.977,2.18454 -2.2704,2.23707 -4.6747,0.83671 z m -585.75,-4.81291 c 0,-1.04145 -1.43168,-0.43714 21.5,-9.07508 95.19237,-35.85723 197.74849,-57.67255 306.5,-65.19742 l 18.5,-1.28008 48.5,0.003 48.5,0.003 17,1.25136 c 70.4155,5.18327 129.078,14.21949 190.3442,29.32009 39.7993,9.80954 85.77464,24.10727 121.96134,37.92843 l 16.3056,6.22773 -0.8303,0.83027 -0.8303,0.83028 -6.4752,-2.61595 c -13.1428,-5.30861 -43.9789,-16.25997 -60.9753,-21.65421 -86.26354,-27.378 -164.23444,-42.06762 -259.50004,-48.88946 l -18,-1.28895 -48,0.0104 -48,0.0104 -18,1.28717 c -112.72584,8.06108 -215.14588,30.09882 -311.89625,67.11088 -17.60491,6.7348 -16.60375,6.42197 -16.60375,5.18814 z m -10.07692,-132.03007 -2.92308,-2.92307 v -2.62238 -2.62238 l 2.45455,-2.45454 2.45454,-2.45455 h 3.09091 3.09091 l 2.45454,2.45455 2.45455,2.45454 -0.0318,2.79546 c -0.0364,3.1982 -1.51121,5.45907 -4.65246,7.13211 -3.37667,1.79842 -5.22127,1.41166 -8.39266,-1.75974 z m 800.39236,1.9161 c -2.6475,-1.06669 -4.3154,-3.9549 -4.3154,-7.47273 v -2.6112 l 2.4545,-2.45454 2.4546,-2.45455 2.7954,0.0318 c 3.1982,0.0364 5.4591,1.51121 7.1322,4.65246 1.7984,3.37667 1.4116,5.22127 -1.7598,8.39266 -3.0105,3.01058 -4.9775,3.44073 -8.7615,1.9161 z M 293.37586,371.95771 v -1 h 393.941 393.94104 l 0.618,1 0.618,1 h -394.55904 -394.559 z m -30.99541,-10.75 c 0.003,-0.4125 6.72178,-2.16686 14.93168,-3.89858 l 14.92709,-3.14857 4.7378,2.39857 4.7378,2.39858 h 386.69094 386.69104 l 3.6725,-2.49224 3.6725,-2.49223 11.7171,2.53921 c 6.4443,1.39657 13.1904,2.80372 14.9913,3.12702 1.8008,0.32329 3.5149,0.97715 3.809,1.45302 l 0.5347,0.86522 H 687.93486 c -234.05744,0 -425.55694,-0.3375 -425.55441,-0.75 z m 32.99541,-24.08902 c 0,-0.40812 10.6875,-1.7777 23.75,-3.04351 13.0625,-1.26582 25.7821,-2.53528 28.26579,-2.82103 l 4.51579,-0.51954 -0.34188,-3.63845 c -0.18803,-2.00115 0.17369,-4.98766 0.80384,-6.63669 l 1.14572,-2.99824 1.73538,5.12618 c 2.25557,6.66277 4.613,10.17271 8.20483,12.21605 1.59933,0.90984 2.91073,1.99567 2.91421,2.41297 0.003,0.41729 -15.96868,0.73297 -35.49368,0.7015 -19.525,-0.0315 -35.5,-0.39113 -35.5,-0.79924 z m 84.49272,-1.51229 c -5.54735,-2.58327 -10.94469,-8.11278 -13.25145,-13.57596 l -1.50855,-3.57273 -0.0134,-6.50158 -0.0134,-6.50158 2.11804,-4.15169 c 7.53802,-14.77575 27.7059,-16.42276 35.3151,-2.88401 l 2.2456,3.9955 v 4.77562 4.77562 l -2.0041,2.68427 c -2.96592,3.97253 -6.47846,6.28721 -10.5414,6.94653 l -3.61397,0.58647 -2.03836,-2.03836 -2.03836,-2.03836 0.54527,-2.08516 0.54528,-2.08515 2.3935,-0.60073 2.39349,-0.60072 1.55654,1.29181 c 0.85609,0.71049 1.35118,2.07707 1.1002,3.03685 l -0.45634,1.74503 1.63681,-0.57718 c 4.09937,-1.44554 8.15585,-7.18096 8.11486,-11.47352 -0.0121,-1.26481 -0.87826,-4.18576 -1.92484,-6.49099 l -1.90288,-4.19134 -4.03532,-2.05866 c -7.39469,-3.77249 -16.86303,-1.71213 -22.40637,4.87576 -3.2,3.80298 -3.46081,7.31339 -0.7451,10.0291 1.07993,1.07993 1.56276,2.2112 1.07295,2.51392 -1.55483,0.96094 -3.2506,7.5333 -2.60618,10.10087 0.34125,1.35966 2.21265,4.23447 4.15866,6.38846 l 3.53819,3.91636 4.68643,1.80843 4.68638,1.80843 h 301 301 l 3.8358,-1.35586 c 6.7377,-2.38162 13.66424,-9.91435 13.66424,-14.86008 0,-0.9984 -0.8223,-3.34847 -1.8273,-5.2224 l -1.8272,-3.40713 1.8272,-1.82726 c 2.4202,-2.42012 2.3047,-4.81313 -0.4308,-8.92939 l -2.258,-3.39788 -4.45394,-2.25 -4.4538,-2.25 h -3.887 c -9.98,0 -17.631,9.12694 -15.3315,18.28909 0.7257,2.89142 4.9436,7.29492 7.6704,8.00801 l 1.9747,0.51638 -0.566,-0.91569 c -0.3112,-0.50363 -0.2815,-1.81166 0.066,-2.90674 l 0.632,-1.99105 h 2.2326 c 2.8742,0 4.6326,1.79213 4.6326,4.72144 v 2.32144 l -2.3317,1.06241 -2.3318,1.06241 -4.0769,-1.0978 -4.0769,-1.09779 -3.042,-3.46468 c -3.6351,-4.14011 -4.6883,-8.76021 -3.2308,-14.17287 l 1.0728,-3.98389 3.6893,-3.68932 3.6893,-3.68931 3.9139,-1.17263 3.9139,-1.17263 5.609,1.17652 5.6091,1.17651 3.50744,2.83876 c 1.929,1.56132 4.5374,4.78664 5.7964,7.16738 l 2.289,4.32862 -0.01,6.59271 -0.01,6.59272 -2.3638,5 c -2.8409,6.0094 -6.5736,9.68359 -12.61674,12.41909 l -4.5,2.03699 -303,0.0122 -303,0.0122 z m 629.51362,1.47187 c 0,-0.34131 1.3149,-1.36497 2.9142,-2.27481 3.5911,-2.0429 5.948,-5.55134 8.2077,-12.21781 l 1.7382,-5.12794 0.8051,2 c 0.4429,1.1 0.8104,4.09175 0.8169,6.64834 l 0.012,4.64834 4,0.5315 c 2.2,0.29232 15.1033,1.56131 28.6741,2.81996 13.5708,1.25866 24.4468,2.65618 24.1691,3.10561 -0.5806,0.93943 -71.3465,0.8073 -71.3369,-0.13319 z m -555.962,-28.03771 -1.09018,-2.03701 2.04584,-2.04584 2.04584,-2.04584 2.03701,1.09018 2.03701,1.09018 -0.30993,2.68274 -0.30993,2.68274 -2.68274,0.30993 -2.68274,0.30993 z m 462.66826,1.29639 c -0.3919,-0.39191 -0.7126,-1.74674 -0.7126,-3.01072 v -2.29815 l 1.8619,-0.99644 1.8618,-0.99644 1.7331,1.26728 1.7331,1.26729 -0.3449,2.44397 -0.345,2.44397 -2.5374,0.29591 c -1.3956,0.16275 -2.8581,-0.0247 -3.25,-0.41667 z M 416.92586,275.053 c 0.5225,-0.49759 5.58155,-2.3228 11.24234,-4.05601 l 10.29234,-3.1513 5.70766,2.14429 5.70766,2.14429 7.5,0.4246 7.5,0.42461 -6.00762,-1.80521 c -19.47879,-5.8531 -42.16308,-21.81411 -48.41232,-34.06364 l -2.1958,-4.30411 0.30787,-3.17641 0.30787,-3.1764 2.22304,-0.31602 2.22304,-0.31602 6.36613,9.81602 c 15.81713,24.38863 31.09131,33.47541 60.72844,36.12803 l 8.45935,0.75714 -5.09723,-5.06659 -5.09723,-5.06658 -1.776,-5.34703 -1.77599,-5.34703 0.46625,-7.26525 0.46626,-7.26526 2.56106,-4.3557 c 3.91823,-6.6639 9.59259,-11.81717 16.72885,-15.1926 l 6.47597,-3.06311 8.02403,0.0194 8.02403,0.0194 4.7381,2.1191 c 3.76438,1.6836 21.49277,13.29281 37.00937,24.23511 l 2.11717,1.49303 -3.12386,-4.31238 c -1.71813,-2.3718 -4.05637,-7.11454 -5.1961,-10.5394 l -2.07222,-6.22704 -0.0684,-7.45362 -0.0684,-7.45362 1.67357,-5 c 3.90502,-11.66669 11.12287,-20.02861 21.46675,-24.86936 l 6.47597,-3.03064 h 8.04805 8.0481 l 6.4759,3.04455 c 7.0804,3.32869 13.9944,9.57146 16.022,14.46646 l 1.2938,3.12355 1.334,-5.36728 c 0.7337,-2.952 3.0124,-8.74228 5.0638,-12.86728 l 3.7298,-7.5 9.0163,-9.10826 9.0163,-9.10827 7.5291,-3.68462 c 4.141,-2.02655 10.891,-4.55761 15,-5.6246 l 7.4709,-1.93997 8.59,-0.0171 8.5901,-0.0171 7.9099,1.99279 c 4.3505,1.09604 11.2173,3.65542 15.2595,5.68751 l 7.3495,3.69471 7.334,6.84922 c 4.0338,3.76708 9.0935,9.6452 11.2438,13.0625 4.3806,6.96156 9.2002,18.34258 9.2674,21.88383 l 0.044,2.32944 2.0049,-3.79906 c 4.4763,-8.48221 13.3525,-14.69938 23.8207,-16.68462 l 5.344,-1.01348 6.5832,1.05167 c 12.4219,1.9844 22.4353,9.97514 28.4738,22.72216 l 3.185,6.72327 -0.01,10.5 -0.01,10.5 -3.2717,6.95434 c -1.7994,3.82488 -4.0457,7.83025 -4.9917,8.90081 -0.9461,1.07056 6.0189,-3.3113 15.4777,-9.73747 9.4588,-6.42617 19.3588,-12.64515 22,-13.81995 l 4.8022,-2.13601 7.5,0.003 7.5,0.003 5.7016,2.21962 5.7017,2.21962 5.1036,4.58865 c 2.8071,2.52376 6.31,6.88707 7.7844,9.69625 l 2.6806,5.1076 v 8.5 8.5 l -2.359,4.5 c -1.2974,2.475 -4.3091,6.33533 -6.6926,8.57852 l -4.3337,4.07851 5.7046,-0.39506 c 8.333,-0.57707 21.8399,-3.12392 28.5652,-5.38627 12.0619,-4.05749 24.9234,-15.41306 35.2535,-31.1257 l 6.41,-9.75 h 2.0194 c 4.7814,0 3.5722,7.65461 -2.4797,15.69829 -9.8891,13.14352 -31.7776,26.53203 -50.0637,30.62234 -1.1,0.24605 0.8457,0.49957 4.3237,0.56337 l 6.3237,0.116 7.3951,-2.48245 7.3951,-2.48245 10.5034,3.28794 c 5.7768,1.80837 10.8159,3.60047 11.1978,3.98245 0.3898,0.38252 -121.6377,0.69505 -271.1643,0.69505 h -271.8667 z m 94.35638,-4.5612 c 3.79259,-1.98217 7.75894,-6.48689 9.60703,-10.91102 l 1.6195,-3.87692 -0.62627,-3.70687 c -0.34445,-2.03878 -1.56063,-5.24329 -2.70262,-7.12114 l -2.07634,-3.41428 -0.85645,2.31521 -0.85645,2.3152 -2.65653,-0.31713 c -1.46109,-0.17443 -3.12757,-1.06969 -3.70329,-1.98948 l -1.04676,-1.67234 1.17446,-2.57766 1.17446,-2.57766 h 2.63909 2.63908 l 3.78626,3.78625 3.78625,3.78626 1.13863,4.22856 1.13864,4.22856 -0.67618,3.73519 c -0.9742,5.3814 -2.73749,8.39589 -7.34703,12.56033 l -4.06762,3.67485 15.25288,-0.0245 c 16.54269,-0.0265 21.27173,-0.7568 29.87476,-4.61345 l 5.62189,-2.52024 6.37811,3.28097 6.37812,3.28097 11.5,0.41368 11.5,0.41367 -6.5,-4.41746 c -3.575,-2.4296 -13.22833,-9.30038 -21.45184,-15.26839 -8.22351,-5.96801 -16.46963,-11.74644 -18.32471,-12.84097 l -3.37287,-1.99004 h -5.34399 -5.34399 l -1.63388,-4.27825 -1.63387,-4.27825 -4.47773,-4.12742 c -5.33179,-4.91467 -11.64206,-7.80428 -18.90765,-8.6582 l -5.31824,-0.62506 -6.98063,2.1203 -6.98063,2.12031 -5.26742,4.73586 -5.26742,4.73587 -2.3378,5.02027 -2.33779,5.02028 -0.01,6.63581 -0.01,6.63581 2.75,5.2566 c 3.07851,5.88455 8.08665,10.41481 13.8775,12.55329 l 3.8725,1.43007 4.90638,-0.56098 c 2.69851,-0.30854 6.07351,-1.17097 7.5,-1.91651 z m 111.87082,-0.70489 c 10.9176,-5.19167 13.4871,-18.4115 5.134,-26.41425 l -3.0425,-2.91495 h -5.5164 -5.5164 l -2.9179,3.26578 -2.918,3.26577 v 3.42521 c 0,3.67043 1.4205,5.49576 2.3638,3.0375 l 0.5734,-1.49426 h 2.4962 2.4962 l 1.1381,2.12649 1.1381,2.1265 -1.1101,2.43633 -1.1101,2.43633 -3.2109,-0.31283 -3.2108,-0.31282 -2.3703,-3.5 -2.3702,-3.5 0.474,-4.32601 0.4741,-4.32601 2.7792,-2.90087 c 3.4726,-3.62463 8.4998,-5.3378 13.6402,-4.64833 l 3.9577,0.53084 -0.737,-1.66481 c -2.4055,-5.43352 -5.3637,-15.0812 -5.3858,-17.56485 l -0.026,-2.90004 -3.1747,4.40004 c -3.8996,5.40484 -5.1667,6.46834 -10.6582,8.9455 l -4.3329,1.95454 -4.6671,-0.01 -4.6671,-0.01 -5.1904,-2.41661 -5.1904,-2.41661 -2.97802,-4.11105 c -1.63792,-2.26108 -3.27073,-5.84352 -3.62848,-7.961 l -0.65044,-3.84994 1.11095,-4.12576 c 0.61102,-2.26916 2.48375,-5.68928 4.16161,-7.60027 l 3.05067,-3.47451 3.81081,-1.14174 3.8108,-1.14174 3.7469,0.70292 3.7469,0.70293 2.9536,2.95353 2.9535,2.95354 -1.4686,2.22292 c -1.7099,2.58823 -5.2234,3.39609 -7.2944,1.67725 -1.9215,-1.59471 -1.8408,-4.86521 0.1389,-5.62487 l 1.5838,-0.60778 -1.3338,-0.84552 c -2.0695,-1.31179 -6.6395,-1.02805 -9.8047,0.60876 -3.84912,1.99045 -6.82182,6.366 -7.59039,11.17237 l -0.63111,3.94673 1.63429,3.9114 c 2.1689,5.19091 4.24767,7.39494 9.05801,9.60386 10.2852,4.72298 22.0198,0.24349 27.8184,-10.61927 l 2.1352,-4 v -7.5 -7.5 l -2.185,-4.12821 c -1.2017,-2.27052 -4.2646,-5.95873 -6.8063,-8.19604 l -4.6213,-4.06781 -5.1705,-1.76294 -5.1705,-1.76293 h -6 -6 l -5.26154,1.79316 -5.26154,1.79317 -5.47458,5.00346 -5.47458,5.00346 -1.14422,3.81906 -1.14422,3.81907 1.12254,3.22014 1.12255,3.22014 -2.94288,3.35175 c -6.79398,7.73792 -4.56229,19.66216 6.38782,34.13096 l 4.71979,6.23644 14.17543,10.34622 c 7.79653,5.69042 15.16103,10.87297 16.36573,11.51678 6.5416,3.49607 15.7265,3.49341 23.0869,-0.007 z m 39.0653,0.79629 c -8.1166,-3.33852 -13.5363,-6.74436 -20.0925,-12.62657 l -5.75,-5.15889 v 2.6121 c 0,5.69097 -3.994,12.28631 -9.5,15.68731 l -3,1.85308 22,-0.02 22,-0.02 z m 45.6993,-1.10771 c 20.0795,-6.74048 35.0449,-21.69013 42.0717,-42.02738 l 2.7608,-7.9904 0.054,-11 0.054,-11 -1.3365,-5.5 c -0.735,-3.025 -3.1881,-9.325 -5.4513,-14 l -4.1149,-8.5 -8.0526,-8.08382 -8.0527,-8.08383 -8.4876,-4.18419 c -27.0802,-13.34992 -57.0516,-7.86967 -77.7044,14.20822 l -6.1543,6.579 -4.0824,8.28231 c -14.2292,28.86747 -6.0306,62.74972 19.8082,81.86149 l 6.6453,4.91524 7.8402,3.05002 c 10.0035,3.89158 16.9227,4.95918 28.143,4.34235 l 8.9831,-0.49385 z m -21.5418,-4.43445 v -5.08333 h 1.5548 1.5548 l -0.3048,4.67183 -0.3048,4.67183 -1.25,0.4115 -1.25,0.41151 z m -10.1151,3.16667 c -0.4804,-3.12878 0.9319,-9.25 2.1341,-9.25 1.0894,0 1.2827,4.27235 0.3507,7.75 -0.569,2.12343 -2.2348,3.12894 -2.4848,1.5 z m 20.6652,-1.5 c -1.0313,-4.75428 -1.0086,-7.07828 0.073,-7.44794 1.2539,-0.42873 2.3429,2.77232 2.3636,6.94794 0.016,3.30564 -1.7491,3.66798 -2.4363,0.5 z m -31.5501,-1.62788 c 0,-1.88667 3.0812,-8.12212 4.0134,-8.12212 1.2525,0 1.2381,0.42838 -0.1717,5.13398 l -1.1583,3.86602 h -1.3417 c -0.7379,0 -1.3417,-0.39504 -1.3417,-0.87788 z m 41.0978,-2.27134 c -2.3316,-6.68861 -0.2992,-8.31069 2.2936,-1.83054 1.9551,4.88625 1.959,4.97976 0.2064,4.97976 -0.7712,0 -1.8962,-1.41715 -2.5,-3.14922 z m -50.4121,-1.49844 c -0.959,-0.95898 3.4656,-8.35234 4.9984,-8.35234 1.7687,0 1.6835,0.46005 -0.9341,5.04418 -2.2738,3.98212 -2.8893,4.48314 -4.0643,3.30816 z m 59.3346,-3.3125 c -2.3677,-4.64116 -2.429,-5.04191 -0.7703,-5.03352 1.3914,0.007 4.75,5.36286 4.75,7.57472 0,2.67105 -1.9586,1.42037 -3.9797,-2.5412 z m -39.3218,-2.13537 c -2.0909,-0.49204 -6.1409,-2.02298 -9,-3.40208 -20.4799,-9.87835 -31.2521,-29.77896 -28.4196,-52.50239 l 0.8103,-6.5 3.4453,-7.33246 3.4452,-7.33247 6.4277,-6.42766 6.4277,-6.42767 7.3324,-3.45417 7.3325,-3.45417 6.8859,-1.0766 c 14.2662,-2.23051 30.7409,3.06529 41.4365,13.31981 5.2809,5.06317 10.9893,14.33587 13.1683,21.39079 l 2.0093,6.50527 -0.012,7.64467 c -0.036,22.93731 -14.5059,41.96577 -36.9196,48.54928 l -5.4314,1.59538 -7.5685,-0.10045 c -4.1627,-0.0553 -9.2792,-0.50303 -11.37,-0.99508 z m 23.6082,-2.39614 c 8.6907,-2.26363 15.4893,-6.14431 21.7733,-12.42833 9.4117,-9.41173 13.8867,-20.42889 13.9081,-34.24091 l 0.012,-7.6609 -1.8945,-6.08723 c -6.9434,-22.30914 -29.8347,-36.63256 -52.8785,-33.08694 l -6.727,1.03504 -7.1404,3.48096 -7.1405,3.48096 -5.3595,5.29246 c -9.5209,9.40173 -13.8268,20.05939 -13.8477,34.27506 l -0.012,8.0685 1.5935,5.4315 c 4.5248,15.4234 17.7375,28.30586 33.4065,32.57147 6.2586,1.7038 17.4936,1.64295 24.3067,-0.13164 z m -13.7263,-16.75833 c -4.6261,-16.20337 -11.9127,-24.99834 -25.8651,-31.21909 l -5.2153,-2.32529 2.5328,-0.6567 c 3.7949,-0.98395 15.8193,1.1966 21.2768,3.85845 l 4.8097,2.34584 -0.6929,-1.62661 c -0.3811,-0.89463 -1.1436,-4.08182 -1.6945,-7.08263 l -1.0017,-5.45604 1.1835,-6.42317 c 1.0565,-5.73355 5.3256,-16.16476 6.6158,-16.16476 1.1157,0 5.6848,11.87856 6.5312,16.97935 l 0.9091,5.47935 -0.9038,5.52065 c -0.4971,3.03636 -1.196,6.26244 -1.5529,7.16907 l -0.6491,1.64842 4.5545,-2.30579 c 5.2602,-2.66303 17.4747,-4.98566 21.244,-4.03962 l 2.5764,0.64664 -6.8694,3.29757 c -3.7782,1.81367 -8.4102,4.5974 -10.2933,6.18607 -4.6246,3.90161 -10.3475,12.97197 -12.4976,19.80772 l -1.7647,5.61057 h -1.4384 c -0.791,0 -1.5989,-0.5625 -1.7951,-1.25 z m -38.5804,18.09439 c 0,-0.63558 1.1769,-2.69865 2.6154,-4.58459 l 2.6154,-3.42898 0.9971,0.99706 0.997,0.99706 -2.8624,3.5875 c -2.9339,3.67701 -4.3625,4.4734 -4.3625,2.43195 z m 76.6539,-2.23154 c -1.4597,-1.91367 -2.6539,-3.95943 -2.6539,-4.54613 0,-2.04091 1.7796,-1.04444 4.4967,2.51787 l 2.7341,3.58459 -0.9615,0.96154 -0.9616,0.96154 z m -84.6539,-5.52396 c 0,-1.10928 5.7875,-6.08889 7.0767,-6.08889 1.6617,0 0.9734,1.57781 -1.8814,4.31291 -2.799,2.68158 -5.1953,3.50075 -5.1953,1.77598 z m 91.0928,-2.29112 -3.4072,-3.19297 1.1895,-0.39649 c 1.3618,-0.45394 8.1249,4.40936 8.1249,5.84258 0,1.86331 -2.5541,0.88911 -5.9072,-2.25312 z m -97.0928,-6.69899 c 0,-0.97608 6.5148,-5.09878 8.0572,-5.09878 2.0122,0 0.792,2.12134 -2.3072,4.01096 -3.4774,2.12024 -5.75,2.55017 -5.75,1.08782 z m 103.25,-1.08782 c -3.0992,-1.88962 -4.3194,-4.01096 -2.3072,-4.01096 1.5425,0 8.0572,4.1227 8.0572,5.09878 0,1.46235 -2.2726,1.03242 -5.75,-1.08782 z m -107.8021,-8.09531 c -0.6563,-1.06188 7.5091,-5.06026 8.7578,-4.28849 1.7487,1.08075 0.5789,2.25823 -3.6879,3.71209 l -4.4823,1.52725 z m 112.3021,-0.57413 -3.75,-1.55543 v -1.50003 -1.50004 l 1.75,0.70927 c 0.9625,0.3901 2.9875,1.15727 4.5,1.70482 1.5125,0.54755 2.75,1.62652 2.75,2.39772 0,1.7272 -0.5303,1.70131 -5.25,-0.25631 z m -114.5012,-10.58791 c 0.5098,-1.52934 7.9017,-2.8979 9.164,-1.69664 l 0.9129,0.86871 -2.728,1.03716 c -1.5003,0.57044 -3.8611,1.03716 -5.2461,1.03716 h -2.5183 z m 114.2908,-0.10097 c -1.0134,-0.74104 -1.4369,-1.59257 -0.9411,-1.89229 1.5035,-0.90884 8.7084,0.66022 9.1527,1.99326 l 0.4155,1.24639 h -3.3922 c -1.8657,0 -4.2214,-0.60631 -5.2349,-1.34736 z m -114.8259,-9.27225 c -1.6803,-1.68038 -0.3954,-2.38039 4.3696,-2.38039 h 5.0834 l -0.4111,1.25 -0.411,1.25 -3.9586,0.29705 c -2.1772,0.16338 -4.2797,-0.0241 -4.6723,-0.41666 z m 114.953,-0.0471 c -1.6264,-1.62631 -0.3134,-2.33329 4.3333,-2.33329 h 5 v 1.5 1.5 h -4.3333 c -2.3834,0 -4.6334,-0.3 -5,-0.66667 z m -112.4167,-10.03902 c -1.2375,-0.23836 -2.25,-1.09746 -2.25,-1.90913 v -1.47577 l 3.75,0.67666 c 4.3895,0.79203 5.25,1.19738 5.25,2.47299 0,0.94719 -2.5858,1.03731 -6.75,0.23525 z m 110.75,-0.22688 c 0,-0.97447 1.3303,-1.48138 6.75,-2.57219 l 3.25,-0.65411 v 1.45445 1.45446 l -3.125,0.625 c -4.4253,0.88506 -6.875,0.77546 -6.875,-0.30761 z m -106.6782,-9.39347 c -4.0179,-1.48404 -5.003,-2.4753 -3.1621,-3.18172 1.7601,-0.67539 8.8403,2.14478 8.8403,3.52122 0,1.24794 -1.6471,1.14946 -5.6782,-0.3395 z m 104.6782,0.3395 c 0,-0.93227 6.2355,-4.01342 8.1221,-4.01342 0.4829,0 0.8779,0.60377 0.8779,1.34171 v 1.34171 l -3.866,1.15829 c -4.7056,1.40983 -5.134,1.42416 -5.134,0.17171 z m -100.2854,-9.28362 c -2.043,-1.1676 -3.7146,-2.70946 -3.7146,-3.42636 0,-0.71689 0.2483,-1.30344 0.5519,-1.30344 1.0911,0 8.4329,4.51531 8.4404,5.19098 0.019,1.67069 -1.83,1.50916 -5.2777,-0.46118 z m 96.9388,1.59028 c -1.3268,-1.32684 -0.5594,-2.32737 3.2922,-4.29232 l 3.9456,-2.01288 0.6545,1.05909 c 0.36,0.5825 0.497,1.17601 0.3044,1.3189 -2.833,2.10225 -7.6931,4.43079 -8.1967,3.92721 z m -91.4124,-10.09698 c -3.3161,-2.77079 -4.0728,-4.2231 -2.2005,-4.2231 1.7226,0 6.9595,4.28012 6.9595,5.68806 0,1.92508 -1.1112,1.58302 -4.759,-1.46496 z m 85.2993,1.84208 c -0.632,-1.02261 5.4406,-6.06518 7.3041,-6.06518 1.8201,0 1.3934,0.81183 -2.0944,3.98478 -3.5138,3.19657 -4.3207,3.51881 -5.2097,2.0804 z m -78.2903,-9.02867 c -2.3675,-3.00182 -2.8931,-5.03651 -1.3009,-5.03651 0.9727,0 6.0509,6.16382 6.0509,7.34439 0,1.60533 -2.6973,0.29479 -4.75,-2.30788 z m 71.75,2.04022 c 0,-1.28925 4.9796,-7.07673 6.0889,-7.07673 1.8088,0 0.8531,2.68143 -1.8936,5.31291 -2.9203,2.79785 -4.1953,3.33388 -4.1953,1.76382 z m -63.3016,-7.58302 c -2.0389,-4.27551 -2.1288,-4.85024 -0.8271,-5.28414 1.1984,-0.39948 5.3371,7.2487 4.4192,8.16661 -1.1937,1.19365 -1.9302,0.60265 -3.5921,-2.88247 z m 55.3016,2.56345 c 0,-1.54241 4.1227,-8.05716 5.0988,-8.05716 1.4623,0 1.0324,2.27256 -1.0878,5.75 -1.8897,3.0992 -4.011,4.31943 -4.011,2.30716 z m -45.8912,-5.30716 c -0.463,-1.2375 -1.1451,-3.22463 -1.5159,-4.41584 l -0.6742,-2.16585 1.0616,-0.65612 1.0616,-0.65613 1.4791,3.53985 c 0.8134,1.94692 1.479,4.22931 1.479,5.07197 0,2.31598 -1.9361,1.83525 -2.8912,-0.71788 z m 37.8912,0.71788 c 0,-0.84266 0.6853,-3.17234 1.523,-5.17705 l 1.5229,-3.64493 0.9757,0.9757 0.9757,0.9757 -1.6503,4.20135 c -1.6507,4.20207 -3.347,5.55492 -3.347,2.66923 z m -28.3397,-3.21788 c -0.2609,-0.9625 -0.7498,-2.9875 -1.0864,-4.5 l -0.612,-2.75 h 1.5 1.5 l 0.5793,2.75 c 0.3186,1.5125 0.735,3.5375 0.9254,4.5 l 0.3462,1.75 h -1.339 c -0.7365,0 -1.5525,-0.7875 -1.8135,-1.75 z m 9.9792,1.05615 c -0.3517,-0.35172 -0.6395,-2.58948 -0.6395,-4.97282 v -4.33333 h 1.5 1.5 v 4.44098 c 0,4.23286 -0.9777,6.24798 -2.3605,4.86517 z m 9.0961,0.0961 c -0.3288,-0.32877 -0.4414,-1.11627 -0.2502,-1.75 0.1912,-0.63372 0.6187,-2.38973 0.9501,-3.90223 0.7244,-3.30577 2.5701,-3.66755 2.5509,-0.5 -0.03,4.92793 -1.5667,7.83634 -3.2508,6.15223 z m 53.7644,117.43077 c -5.8217,-3.21986 -10.5,-10.34698 -10.5,-15.99613 v -3.24279 l -3.75,3.53038 c -7.8019,7.34493 -15.3846,12.17911 -24.1953,15.42503 l -3.5547,1.30957 22,0.0401 22,0.0401 z m 25,-1.9216 c 5.6595,-2.7156 24.9988,-17.06015 31.3114,-23.22466 6.1698,-6.02511 11.2141,-13.96301 13.666,-21.50558 l 1.7291,-5.31881 -0.6709,-4.47338 -0.6708,-4.47338 -3.0319,-3.45311 -3.0318,-3.4531 1.0151,-2.91188 1.0151,-2.91188 -0.8521,-3.84282 -0.852,-3.84282 -5.5018,-5.14912 -5.5019,-5.14913 -5.3118,-1.83081 -5.3117,-1.83082 -7,0.0797 -7,0.0797 -5.8823,2.78544 c -3.2353,1.532 -7.5861,4.54104 -9.6685,6.68677 l -3.7861,3.90132 -1.5816,4.64158 c -2.9155,8.55661 -1.8199,17.44778 3.0085,24.41516 l 2.6361,3.80393 5.0833,2.53311 5.0833,2.53311 h 4.5685 4.5684 l 3.9852,-2.06662 c 5.271,-2.73339 8.1814,-6.09158 9.4895,-10.94933 l 1.0728,-3.98405 -1.1197,-4.15802 c -1.2805,-4.75555 -5.4788,-9.43277 -9.3358,-10.40083 -1.4491,-0.36369 -4.3193,-0.31285 -6.3782,0.11299 l -3.7434,0.77425 1.703,0.40008 c 0.9367,0.22004 1.9864,1.29275 2.3326,2.38379 l 0.6296,1.98372 -1.205,1.45201 c -1.5873,1.91259 -5.4187,1.85067 -7.3888,-0.11942 -2.9011,-2.90113 -1.6183,-5.85381 3.7281,-8.58136 l 4.0528,-2.0676 4.4381,0.50023 c 7.5254,0.84823 13.0209,6.38716 14.2279,14.34056 l 0.7199,4.74386 -0.9673,3.56787 c -1.4596,5.38381 -5.1357,9.57246 -10.9393,12.46449 l -5.2243,2.60344 -4.0536,-0.006 c -8.7159,-0.012 -15.812,-3.76825 -20.6073,-10.90832 l -2.5928,-3.8606 -1.1945,5.63725 c -0.657,3.10049 -2.2556,8.21063 -3.5524,11.35586 l -2.3579,5.71861 2.022,-1.08216 2.0221,-1.08216 4.4678,0.50359 c 5.4832,0.61804 9.1557,3.1783 11.5924,8.08153 l 1.8532,3.72895 -0.6294,3.35507 c -0.3462,1.84529 -1.5503,4.52572 -2.6758,5.95651 l -2.0463,2.60187 h -2.8922 -2.8922 l -1.1381,-2.12649 -1.1381,-2.1265 1.0815,-2.3735 1.0814,-2.37351 h 2.4718 2.4717 l 0.9715,1.73587 0.9714,1.73586 0.6759,-2.69295 c 0.9921,-3.95285 -0.7247,-7.97461 -4.4944,-10.52878 l -3.3208,-2.25 h -3.4478 c -4.621,0 -8.6212,2.52515 -11.1621,7.04608 l -2.0943,3.72623 v 4.1635 c 0,7.61583 4.5109,13.14691 13.2156,16.20432 l 5.2844,1.85605 5,-0.58272 c 2.75,-0.32049 6.8,-1.44641 9,-2.50204 z m 30.1551,-0.77518 6.1552,-3.31376 4.8448,2.19701 c 2.6647,1.20836 7.0949,2.81796 9.8449,3.57689 l 5,1.37988 16,0.005 16,0.005 -2.6766,-1.76526 c -5.0348,-3.32048 -9.8303,-11.35029 -9.8178,-16.43944 0.011,-4.63304 2.2228,-10.02916 5.6773,-13.8529 l 3.5498,-3.92866 h 2.3122 c 2.361,0 5.4551,2.34663 5.4551,4.13717 0,0.54687 -0.4658,1.86473 -1.0352,2.92857 l -1.0352,1.93426 h -2.3423 c -2.6068,0 -4.9771,-2.20341 -3.8286,-3.55904 0.4077,-0.48126 -0.072,-0.25068 -1.0665,0.5124 -0.9942,0.76309 -2.4925,2.99825 -3.3294,4.96703 l -1.5217,3.57961 0.4592,4.27268 0.4591,4.27269 2.6341,3.8009 c 3.3176,4.7874 9.0876,8.06807 15.5324,8.83136 l 5.0019,0.5924 5.5157,-2.69858 c 9.497,-4.64643 14.5565,-13.18064 14.5565,-24.55324 v -5.62552 l -2.5784,-5.17416 -2.5784,-5.17415 -5.0366,-4.52833 -5.0366,-4.52833 -6.9894,-2.12299 -6.9895,-2.12298 -5.5124,0.56893 -5.5123,0.56893 -5.5272,2.7042 c -3.04,1.48731 -7.2366,4.4136 -9.3259,6.50288 l -3.7987,3.79868 -1.2281,4.09925 -1.2282,4.09924 -2.6617,-0.5846 c -1.4639,-0.32153 -4.4819,-0.17561 -6.7067,0.32427 l -4.0451,0.90887 -18.3724,13.3248 c -10.1048,7.32863 -20.6224,14.86318 -23.3724,16.74344 l -5,3.41864 11.5,-0.38464 11.5,-0.38465 z M 532.80554,212.11834 c -10.37035,-9.03947 -18.24211,-17.66989 -19.07045,-20.90839 -0.79801,-3.11997 0.22059,-5.25224 2.50904,-5.25224 h 1.93104 l 5.01786,5.49033 c 3.96911,4.34285 14.82032,19.4793 19.54224,27.25967 1.7797,2.93244 -1.51203,0.74805 -9.92973,-6.58937 z m 300.18812,6.58937 c 2.314,-3.93062 11.3665,-17.09994 15.2946,-22.25 7.6761,-10.06396 12.1889,-12.90696 13.5717,-8.54998 l 0.619,1.95002 -1.5298,2.95817 c -1.838,3.55435 -11.5917,13.68091 -20.6842,21.47496 -6.4629,5.53999 -8.7505,6.92952 -7.2713,4.41683 z"
       style="display:inline"
       id="path1-7" />
  </g>
</svg>
